# xmcd
#
# Track frame offsets: 
#        150
#        15597
#        31722
#        52947
#
# Disc length: 914 seconds
#
# Revision: 3
# Processed by: cddbd v1.5.2PL0 Copyright (c) Steve Scherf et al.
# Submitted via: ExactAudioCopyFreeDBPlugin 1.0
#
DISCID=1f039004
DTITLE=Wyclef Jean - Gone Till November [UK]
DYEAR=1997
DGENRE=Hip Hop
TTITLE0=Gone Till November (Album Version)
TTITLE1=Gone Till November (Pop Version)
TTITLE2=No Airplay
TTITLE3=Bubblegoose (Bakin' Cake Version)
EXTD=Columbia 665871 2
EXTT0=
EXTT1=
EXTT2=
EXTT3=
PLAYORDER=
